<!-- icon666.com - MILLIONS OF FREE VECTOR ICONS --><svg clip-rule="evenodd" fill-rule="evenodd" image-rendering="optimizeQuality" shape-rendering="geometricPrecision" text-rendering="geometricPrecision" viewBox="0 0 6.82666 6.82666" xmlns="http://www.w3.org/2000/svg" xmlns:xlink="http://www.w3.org/1999/xlink"><linearGradient id="id0" gradientUnits="userSpaceOnUse" x1=".08" x2="6.747" y1=".08" y2="6.747"><stop offset="0" stop-color="#f84d9a"></stop><stop offset="1" stop-color="#a10556"></stop></linearGradient><g id="Layer_x0020_1"><circle cx="3.413" cy="3.413" fill="url(#id0)" r="3.333" style="fill: rgb(88, 58, 126);"></circle><g id="_581451560"><g fill="#fff"><path id="_581454800" d="" fill="#fff"></path><path id="_581454440" d="m3.49452 3.61274c0 .00001575-.00001181.00004331-.00001181.00005906.00001181-.00002362 0-.00003543.00001181-.00005906z" fill="#fff"></path><path id="_581453936" d="m3.49459 3.61268c0 .00001968-.00009055.00004331-.00009055.00006299.00001181-.00002362.00009055-.0000315.00009055-.00006299z" fill="#fff"></path><path id="_581454320" d="m2.87679 3.59509h.00008z" fill="#fff"></path><path id="_581454224" d="m3.2138 3.33201c0 .00002362-.00000787.00005906-.00000787.00007874.00000787-.00003543 0-.00004331.00000787-.00007874z" fill="#fff"></path><path id="_581454536" d="m3.21388 3.33197v.00002756c0-.00002756 0-.00000787 0-.00002756z" fill="#fff"></path><path id="_581453552" d="m2.83441 3.8078-.670772.67085.184323.184354.670811-.670795c-.0349567-.0197795-.0701102-.0467244-.103858-.0805118-.0337795-.0337835-.0607244-.0689449-.0805039-.103898z" fill="#fff"></path><path id="_581453240" d="m5.36277 2.60605.22952-.229528c.00016535-.0114567-.00649606-.0700591-.131197-.235941-.0905079-.120346-.219894-.266197-.364429-.41072-.144516-.144551-.290343-.273976-.410732-.364472-.166291-.125079-.224638-.131378-.236035-.131189l-.229445.229461c.0441102.0249409.105173.0681654.193209.141012.119846.0991496.269008.236929.419984.387929.151106.151024.288894.300248.388039.42015.0728661.0880591.116126.149157.141087.193299z" fill="#fff"></path><path id="_581453816" d="m3.92328 1.76085c.140134.0584724.503543.41528.615299.527063.111783.11178.468598.475209.527016.615315l.219764-.219772c-.0278701-.0687283-.196091-.287366-.525531-.616787-.329425-.329449-.548059-.497661-.616799-.525583l-.219748.219764z" fill="#fff"></path><path id="_581453768" d="m4.81769 3.11177c0 .00002362-.00001968.00004331-.00001968.00005512.00001968-.00001181 0-.00002756.00001968-.00005512z" fill="#fff"></path><path id="_581453168" d="m3.80783 1.9462c.0356693.026189.0889606.0699567.170579.143642.108051.0974764.245583.229209.387303.370937.14176.141705.273461.27928.370969.387327.0736496.0816654.11739.134878.143626.170563l.0849843-.0849961c-.0312913-.0632638-.193843-.264961-.500709-.571803-.306748-.306846-.508504-.469331-.571693-.500661l-.0850591.0849921z" fill="#fff"></path><path id="_581453576" d="m3.71468 2.00877c.00008268 0 .00008268.00000787.00008268.00001181 0-.00001181 0-.00000394-.00008268-.00001181z" fill="#fff"></path><path id="_581453000" d="" fill="#fff"></path></g><path id="_581452976" d="m3.479 3.202h-.001" fill="none"></path><path id="_581452832" d="m3.72831 3.36874c-.00169685.0221811-.00630709.0441811-.0138346.0653661.122177-.00631496.23437.00147244.336028.00853543.446173.0310079.548382-.066815.780516-.303528-.00621654-.00670472-.0106772-.0150197-.0127165-.0242126-.0112638-.0273661-.0874921-.120165-.218669-.261713-.109795.0854921-.236717.142969-.370366.203524-.174598.0790748-.354929.160768-.500957.312028z" fill="#fff"></path><path id="_581452352" d="m3.58203 3.12004c.0269646.0123425.0517717.0295354.0733543.0511299.021878.0218819.038874.0468228.0510039.0734567.147626-.13278.316059-.209079.479748-.283181.124449-.0564094.242724-.10998.341571-.184909-.0679843-.0716457-.146949-.152756-.235988-.241791-.0890079-.0890433-.170114-.168008-.241744-.23598-.0749252.0988071-.128516.21713-.184866.341654-.0741339.163571-.150382.331972-.283079.479622z" fill="#fff"></path><path id="_581452328" d="m3.39244 3.1119c.0209331-.00745669.0429134-.012122.0654882-.013815.151248-.145984.232815-.326287.311858-.500823.0605709-.133717.118075-.260606.203575-.370386-.141543-.131165-.234362-.207378-.261685-.218685-.00920079-.00204724-.0175276-.00649606-.0242323-.0127047-.236693.232106-.334508.334374-.303512.78052.00707087.101606.0148268.213768.00850787.335894z" fill="#fff"></path><path id="_581451848" d="m3.30014 3.52863-.00109843-.00108661-.00129528-.00130709c-.0469646-.0470512-.0892677-.0926417-.11928-.128567-.00433071-.00530709-.00907874-.010874-.013689-.0166299l-.250933.251028c-.0153189.0152992-.0192402.0383031-.0116299.0684528.00041339.00133465.00077559.0026811.0010748.00403543.00061024.00217323.00127559.00438583.00200394.00663386.013.0403031.0433937.0864488.0835236.126547.0401575.0401024.086248.0705669.126559.0835591.00229134.00073622.00455118.00141339.00676772.0020315.00122835.00027953.00244094.00059843.00365354.0009685.0303268.0076811.053378.00383858.0686535-.0114961l.251039-.251047c-.00571654-.00459843-.0111732-.00917717-.0164409-.013563-.0359921-.03-.081752-.0724252-.128909-.119559z" fill="#fff"></path><path id="_581451704" d="m3.478 3.202h-.001" fill="none"></path><path id="_581451944" d="m3.36805 3.44844c.0605.0607717.151551.0670709.213343.00514173.0931732-.0931063.0261102-.249039-.101197-.251602-.130567-.00103937-.197949.152-.112146.246461z" fill="#fff"></path><path id="_581452160" d="m1.34047 5.48622c.0684331.0685118.159587.106252.256453.106252.0969055-.00000787.187937-.0377362.256488-.106248.0419567-.0419291.0724449-.10474.111114-.18428.0643189-.132248.151079-.310638.352453-.521992l-.262705-.262819c-.00053543-.00049606-.00106693-.00100787-.00159055-.00152756-.00048032-.00048425-.00094882-.00097638-.00140945-.00147244l-.00453937-.00454331c-.211382.201445-.389799.288193-.522083.352492-.0795079.0386732-.142354.0692283-.184201.111142-.141417.141417-.141453.371559 0 .513l.00001968-.00000394zm.14672-.104673c-.0111102 0-.0218819-.00441732-.0297717-.0123346-.00824409-.00830315-.0127165-.0196969-.0122756-.0314291.010374-.262059.0889291-.335953.152949-.351803.0496417-.0122874.102969.0114724.129713.0577362.00759449.0130984.0124173.0268543.0144724.0406299.0138071.00206299.0275472.00687008.040622.0144488.0462874.0267835.0700079.0801378.0577402.129728-.0158622.0640512-.0897441.142587-.351795.152988-.00050394.00001968-.00109843.00003937-.00165354.00003543z" fill="#fff"></path></g></g></svg>