<svg xmlns="http://www.w3.org/2000/svg" version="1.1" xmlns:xlink="http://www.w3.org/1999/xlink" width="256px" height="256px"><svg version="1.1" id="SvgjsSvg1007" xmlns="http://www.w3.org/2000/svg" xmlns:xlink="http://www.w3.org/1999/xlink" viewBox="-51.2 -51.2 614.40 614.40" xml:space="preserve" width="256px" height="256px" fill="#000000">

<g id="SvgjsG1006" stroke-width="0">

<rect x="-51.2" y="-51.2" width="614.40" height="614.40" rx="307.2" fill="#F8F0F0" strokewidth="0"></rect>

</g>

<g id="SvgjsG1005" stroke-linecap="round" stroke-linejoin="round"></g>

<g id="SvgjsG1004"> <polygon style="fill:#515255;" points="203.792,88.408 203.792,55.017 168.033,55.017 168.033,47.066 184.728,47.066 184.728,13.675 168.033,13.675 168.033,0 134.642,0 134.642,13.675 117.946,13.675 117.946,47.066 134.642,47.066 134.642,55.017 98.883,55.017 98.883,88.408 134.642,88.408 134.642,96.358 98.883,96.358 98.883,129.75 134.642,129.75 134.642,137.7 117.946,137.7 117.946,171.091 134.642,171.091 134.642,236.005 168.033,236.005 168.033,171.091 184.728,171.091 184.728,137.7 168.033,137.7 168.033,129.75 203.792,129.75 203.792,96.358 168.033,96.358 168.033,88.408 "></polygon> <polygon style="fill:#3A3838;" points="203.792,88.408 203.792,55.017 168.033,55.017 168.033,47.066 184.728,47.066 184.728,13.675 168.033,13.675 168.033,0 151.337,0 151.337,236.005 168.033,236.005 168.033,171.091 184.728,171.091 184.728,137.7 168.033,137.7 168.033,129.75 203.792,129.75 203.792,96.358 168.033,96.358 168.033,88.408 "></polygon> <path style="fill:#C0369E;" d="M382.861,512h-44.393c-28.389,0-51.404-23.014-51.404-51.404V175.234h147.199v285.362 C434.265,488.986,411.251,512,382.861,512z"></path> <path style="fill:#8B2975;" d="M382.861,512h-22.196V175.235h73.599v285.362C434.265,488.986,411.251,512,382.861,512z"></path> <rect x="96.146" y="206.369" style="fill:#DC90CC;" width="110.381" height="77.256"></rect> <g> <rect x="151.342" y="206.369" style="fill:#C0369E;" width="55.19" height="77.256"></rect> <path style="fill:#C0369E;" d="M173.532,512H129.14c-28.389,0-51.404-23.014-51.404-51.404V265.636h147.2v194.961 C224.936,488.986,201.922,512,173.532,512z"></path> </g> <path style="fill:#8B2975;" d="M173.532,512h-22.196c0-58.831,0-246.364,0-246.364h73.599v194.961 C224.936,488.986,201.922,512,173.532,512z"></path> </g>

</svg><style>@media (prefers-color-scheme: light) { :root { filter: none; } }
@media (prefers-color-scheme: dark) { :root { filter: none; } }
</style></svg>