<svg xmlns="http://www.w3.org/2000/svg" version="1.1" xmlns:xlink="http://www.w3.org/1999/xlink" width="6.82666" height="6.82666"><svg clip-rule="evenodd" fill-rule="evenodd" image-rendering="optimizeQuality" shape-rendering="geometricPrecision" text-rendering="geometricPrecision" viewBox="0 0 6.82666 6.82666" xmlns="http://www.w3.org/2000/svg" xmlns:xlink="http://www.w3.org/1999/xlink"><linearGradient id="SvgjsLinearGradient1011" gradientUnits="userSpaceOnUse" x1=".08" x2="6.747" y1=".08" y2="6.747"><stop offset="0" stop-color="#f84d9a"></stop><stop offset="1" stop-color="#a10556"></stop></linearGradient><g id="SvgjsG1010"><circle cx="3.413" cy="3.413" fill="url(#id0)" r="3.333" style="fill: rgb(89, 66, 154);"></circle><g id="SvgjsG1009" fill="#fff"><path id="SvgjsPath1008" d="m3.40103 3.11072-2.10168 2.10176c-.0868228.0868189-.0868228.228106-.00000787.314921.0868228.0868071.228087.0868189.314898 0l2.10167-2.10178-.314882-.314906z" fill="#fff" style="fill: rgb(240, 240, 240);"></path><path id="SvgjsPath1007" d="m4.66029 2.74231c.049437-.023378.100866-.0467244.154724-.0711811.339319-.154063.723902-.328665.772382-.595776.0285984-.157681-.0648228-.345563-.277724-.558469-.212898-.212906-.400823-.306307-.558445-.277709-.267091.0484764-.441697.433079-.595736.77239-.0244567.0538583-.047811.105299-.071189.154744l.575988.576z" fill="#fff" style="fill: rgb(240, 240, 240);"></path><path id="SvgjsPath1006" d="m3.43934 3.00112.38617.38618.77429-.55755-.60292-.60297z" fill="#fff" style="fill: rgb(240, 240, 240);"></path></g></g></svg><style>@media (prefers-color-scheme: light) { :root { filter: none; } }
@media (prefers-color-scheme: dark) { :root { filter: none; } }
</style></svg>